<mxfile host="app.diagrams.net" modified="2024-10-22T21:27:03.649Z" agent="Mozilla/5.0 (Windows NT 10.0; Win64; x64) AppleWebKit/537.36 (KHTML, like Gecko) Chrome/129.0.0.0 Safari/537.36" etag="kUjdfCtX9NzUPohygMVn" version="21.2.7" type="device">
  <diagram name="Page-1" id="GnVYv0suokibBxsM27jT">
    <mxGraphModel dx="1075" dy="442" grid="1" gridSize="10" guides="1" tooltips="1" connect="1" arrows="1" fold="1" page="1" pageScale="1" pageWidth="850" pageHeight="1100" math="0" shadow="0">
      <root>
        <mxCell id="0" />
        <mxCell id="1" parent="0" />
        <mxCell id="NqJ5jCpXcAe0GCEotelj-1" value="&lt;font style=&quot;font-size: 19px;&quot;&gt;Application&lt;/font&gt;" style="rounded=0;whiteSpace=wrap;html=1;" vertex="1" parent="1">
          <mxGeometry x="340" y="220" width="120" height="60" as="geometry" />
        </mxCell>
        <mxCell id="NqJ5jCpXcAe0GCEotelj-2" value="" style="endArrow=classic;html=1;rounded=0;" edge="1" parent="1">
          <mxGeometry width="50" height="50" relative="1" as="geometry">
            <mxPoint x="399.5" y="220" as="sourcePoint" />
            <mxPoint x="400" y="160" as="targetPoint" />
          </mxGeometry>
        </mxCell>
        <mxCell id="NqJ5jCpXcAe0GCEotelj-4" style="edgeStyle=orthogonalEdgeStyle;rounded=0;orthogonalLoop=1;jettySize=auto;html=1;exitX=1;exitY=0.5;exitDx=0;exitDy=0;" edge="1" parent="1" source="NqJ5jCpXcAe0GCEotelj-3" target="NqJ5jCpXcAe0GCEotelj-5">
          <mxGeometry relative="1" as="geometry">
            <mxPoint x="520" y="135" as="targetPoint" />
          </mxGeometry>
        </mxCell>
        <mxCell id="NqJ5jCpXcAe0GCEotelj-3" value="&lt;font style=&quot;font-size: 18px;&quot;&gt;Prometheus&lt;/font&gt;" style="rounded=0;whiteSpace=wrap;html=1;" vertex="1" parent="1">
          <mxGeometry x="345" y="110" width="110" height="50" as="geometry" />
        </mxCell>
        <mxCell id="NqJ5jCpXcAe0GCEotelj-5" value="&lt;font style=&quot;font-size: 19px;&quot;&gt;Grafana&lt;/font&gt;" style="rounded=0;whiteSpace=wrap;html=1;" vertex="1" parent="1">
          <mxGeometry x="520" y="110" width="110" height="50" as="geometry" />
        </mxCell>
        <mxCell id="NqJ5jCpXcAe0GCEotelj-6" value="" style="endArrow=classic;html=1;rounded=0;" edge="1" parent="1" target="NqJ5jCpXcAe0GCEotelj-7">
          <mxGeometry width="50" height="50" relative="1" as="geometry">
            <mxPoint x="400" y="110" as="sourcePoint" />
            <mxPoint x="760" y="160" as="targetPoint" />
            <Array as="points">
              <mxPoint x="400" y="80" />
              <mxPoint x="720" y="80" />
            </Array>
          </mxGeometry>
        </mxCell>
        <mxCell id="NqJ5jCpXcAe0GCEotelj-8" style="edgeStyle=orthogonalEdgeStyle;rounded=0;orthogonalLoop=1;jettySize=auto;html=1;exitX=0.5;exitY=1;exitDx=0;exitDy=0;" edge="1" parent="1" source="NqJ5jCpXcAe0GCEotelj-7" target="NqJ5jCpXcAe0GCEotelj-10">
          <mxGeometry relative="1" as="geometry">
            <mxPoint x="640" y="280" as="targetPoint" />
            <Array as="points">
              <mxPoint x="720" y="280" />
            </Array>
          </mxGeometry>
        </mxCell>
        <mxCell id="NqJ5jCpXcAe0GCEotelj-7" value="&lt;font style=&quot;font-size: 18px;&quot;&gt;AWS Sage Maker&lt;/font&gt;" style="rounded=0;whiteSpace=wrap;html=1;" vertex="1" parent="1">
          <mxGeometry x="660" y="160" width="120" height="60" as="geometry" />
        </mxCell>
        <mxCell id="NqJ5jCpXcAe0GCEotelj-10" value="&lt;font style=&quot;font-size: 18px;&quot;&gt;AWS SNS Service&lt;/font&gt;" style="rounded=0;whiteSpace=wrap;html=1;" vertex="1" parent="1">
          <mxGeometry x="550" y="260" width="110" height="50" as="geometry" />
        </mxCell>
        <mxCell id="NqJ5jCpXcAe0GCEotelj-13" style="edgeStyle=orthogonalEdgeStyle;rounded=0;orthogonalLoop=1;jettySize=auto;html=1;exitX=1;exitY=0.5;exitDx=0;exitDy=0;entryX=0.001;entryY=0.651;entryDx=0;entryDy=0;entryPerimeter=0;" edge="1" parent="1" source="NqJ5jCpXcAe0GCEotelj-11" target="NqJ5jCpXcAe0GCEotelj-12">
          <mxGeometry relative="1" as="geometry" />
        </mxCell>
        <mxCell id="NqJ5jCpXcAe0GCEotelj-11" value="&lt;font style=&quot;font-size: 18px;&quot;&gt;DevOps Architects&lt;/font&gt;" style="rounded=0;whiteSpace=wrap;html=1;" vertex="1" parent="1">
          <mxGeometry x="10" y="180" width="130" height="70" as="geometry" />
        </mxCell>
        <mxCell id="NqJ5jCpXcAe0GCEotelj-12" value="" style="rounded=0;whiteSpace=wrap;html=1;fillColor=none;" vertex="1" parent="1">
          <mxGeometry x="280" width="570" height="330" as="geometry" />
        </mxCell>
        <mxCell id="NqJ5jCpXcAe0GCEotelj-14" value="&lt;font style=&quot;font-size: 15px;&quot;&gt;Terrafrom code&lt;/font&gt;" style="text;html=1;align=center;verticalAlign=middle;resizable=0;points=[];autosize=1;strokeColor=none;fillColor=none;" vertex="1" parent="1">
          <mxGeometry x="150" y="190" width="120" height="30" as="geometry" />
        </mxCell>
        <mxCell id="NqJ5jCpXcAe0GCEotelj-17" value="" style="rounded=0;whiteSpace=wrap;html=1;fillColor=none;" vertex="1" parent="1">
          <mxGeometry x="322.5" y="220" width="155" height="100" as="geometry" />
        </mxCell>
        <mxCell id="NqJ5jCpXcAe0GCEotelj-18" value="&lt;font style=&quot;font-size: 14px;&quot;&gt;EKS Cluster&lt;/font&gt;" style="text;html=1;align=center;verticalAlign=middle;resizable=0;points=[];autosize=1;strokeColor=none;fillColor=none;" vertex="1" parent="1">
          <mxGeometry x="350" y="290" width="100" height="30" as="geometry" />
        </mxCell>
        <mxCell id="NqJ5jCpXcAe0GCEotelj-19" value="&lt;font style=&quot;font-size: 14px;&quot;&gt;data&lt;/font&gt;" style="text;html=1;strokeColor=none;fillColor=none;align=center;verticalAlign=middle;whiteSpace=wrap;rounded=0;" vertex="1" parent="1">
          <mxGeometry x="400" y="175" width="60" height="30" as="geometry" />
        </mxCell>
        <mxCell id="NqJ5jCpXcAe0GCEotelj-20" value="&lt;font style=&quot;font-size: 18px;&quot;&gt;&lt;b&gt;Infrastructure&lt;/b&gt;&lt;/font&gt;" style="text;html=1;strokeColor=none;fillColor=none;align=center;verticalAlign=middle;whiteSpace=wrap;rounded=0;" vertex="1" parent="1">
          <mxGeometry x="520" y="20" width="60" height="30" as="geometry" />
        </mxCell>
        <mxCell id="NqJ5jCpXcAe0GCEotelj-21" value="precessed&lt;br&gt;data" style="text;html=1;strokeColor=none;fillColor=none;align=center;verticalAlign=middle;whiteSpace=wrap;rounded=0;" vertex="1" parent="1">
          <mxGeometry x="460" y="100" width="60" height="30" as="geometry" />
        </mxCell>
        <mxCell id="NqJ5jCpXcAe0GCEotelj-22" value="&lt;font style=&quot;font-size: 16px;&quot;&gt;&lt;span style=&quot;color: rgb(0, 0, 0); font-family: Helvetica; font-style: normal; font-variant-ligatures: normal; font-variant-caps: normal; font-weight: 400; letter-spacing: normal; orphans: 2; text-indent: 0px; text-transform: none; widows: 2; word-spacing: 0px; -webkit-text-stroke-width: 0px; background-color: rgb(251, 251, 251); text-decoration-thickness: initial; text-decoration-style: initial; text-decoration-color: initial; float: none; display: inline !important;&quot;&gt;precessed&lt;/span&gt;&lt;br style=&quot;border-color: var(--border-color); color: rgb(0, 0, 0); font-family: Helvetica; font-style: normal; font-variant-ligatures: normal; font-variant-caps: normal; font-weight: 400; letter-spacing: normal; orphans: 2; text-indent: 0px; text-transform: none; widows: 2; word-spacing: 0px; -webkit-text-stroke-width: 0px; background-color: rgb(251, 251, 251); text-decoration-thickness: initial; text-decoration-style: initial; text-decoration-color: initial;&quot;&gt;&lt;span style=&quot;color: rgb(0, 0, 0); font-family: Helvetica; font-style: normal; font-variant-ligatures: normal; font-variant-caps: normal; font-weight: 400; letter-spacing: normal; orphans: 2; text-indent: 0px; text-transform: none; widows: 2; word-spacing: 0px; -webkit-text-stroke-width: 0px; background-color: rgb(251, 251, 251); text-decoration-thickness: initial; text-decoration-style: initial; text-decoration-color: initial; float: none; display: inline !important;&quot;&gt;data&lt;/span&gt;&lt;/font&gt;" style="text;whiteSpace=wrap;html=1;align=center;" vertex="1" parent="1">
          <mxGeometry x="650" y="30" width="90" height="50" as="geometry" />
        </mxCell>
        <mxCell id="NqJ5jCpXcAe0GCEotelj-23" value="&lt;font style=&quot;font-size: 16px;&quot;&gt;Signal&amp;nbsp;&lt;/font&gt;" style="text;html=1;strokeColor=none;fillColor=none;align=center;verticalAlign=middle;whiteSpace=wrap;rounded=0;" vertex="1" parent="1">
          <mxGeometry x="730" y="255" width="60" height="30" as="geometry" />
        </mxCell>
        <mxCell id="NqJ5jCpXcAe0GCEotelj-24" value="" style="endArrow=classic;html=1;rounded=0;entryX=0.5;entryY=1;entryDx=0;entryDy=0;strokeColor=#FF0000;" edge="1" parent="1" target="NqJ5jCpXcAe0GCEotelj-11">
          <mxGeometry width="50" height="50" relative="1" as="geometry">
            <mxPoint x="600" y="310" as="sourcePoint" />
            <mxPoint x="650" y="260" as="targetPoint" />
            <Array as="points">
              <mxPoint x="600" y="400" />
              <mxPoint x="320" y="400" />
            </Array>
          </mxGeometry>
        </mxCell>
        <mxCell id="NqJ5jCpXcAe0GCEotelj-25" value="&lt;font style=&quot;font-size: 16px;&quot;&gt;ALERT&lt;/font&gt;" style="text;html=1;strokeColor=none;fillColor=none;align=center;verticalAlign=middle;whiteSpace=wrap;rounded=0;rotation=30;" vertex="1" parent="1">
          <mxGeometry x="190" y="350" width="60" height="30" as="geometry" />
        </mxCell>
        <mxCell id="NqJ5jCpXcAe0GCEotelj-28" value="" style="endArrow=classic;html=1;rounded=0;entryX=0.5;entryY=0;entryDx=0;entryDy=0;fillColor=#00FF00;strokeColor=#00CC00;" edge="1" parent="1" target="NqJ5jCpXcAe0GCEotelj-11">
          <mxGeometry width="50" height="50" relative="1" as="geometry">
            <mxPoint x="570" y="110" as="sourcePoint" />
            <mxPoint x="620" y="60" as="targetPoint" />
            <Array as="points">
              <mxPoint x="570" y="60" />
              <mxPoint x="340" y="60" />
            </Array>
          </mxGeometry>
        </mxCell>
        <mxCell id="NqJ5jCpXcAe0GCEotelj-29" value="&lt;font style=&quot;font-size: 16px;&quot;&gt;Visualized data&lt;/font&gt;" style="text;html=1;strokeColor=none;fillColor=none;align=center;verticalAlign=middle;whiteSpace=wrap;rounded=0;rotation=-25;" vertex="1" parent="1">
          <mxGeometry x="160" y="90" width="40" height="30" as="geometry" />
        </mxCell>
      </root>
    </mxGraphModel>
  </diagram>
</mxfile>
